<mxfile host="app.diagrams.net" agent="Mozilla/5.0 (Windows NT 10.0; Win64; x64) AppleWebKit/537.36 (KHTML, like Gecko) Chrome/139.0.0.0 Safari/537.36" version="28.1.2">
  <diagram name="Page-1" id="sb4QUzKaqlvgCQbPPapD">
    <mxGraphModel dx="1042" dy="562" grid="1" gridSize="10" guides="1" tooltips="1" connect="1" arrows="1" fold="1" page="1" pageScale="1" pageWidth="850" pageHeight="1100" math="0" shadow="0">
      <root>
        <mxCell id="0" />
        <mxCell id="1" parent="0" />
        <mxCell id="NqwPaf2GfjFsyQQR7Uon-9" value="" style="edgeStyle=orthogonalEdgeStyle;rounded=0;orthogonalLoop=1;jettySize=auto;html=1;" edge="1" parent="1" source="NqwPaf2GfjFsyQQR7Uon-1" target="NqwPaf2GfjFsyQQR7Uon-2">
          <mxGeometry relative="1" as="geometry" />
        </mxCell>
        <mxCell id="NqwPaf2GfjFsyQQR7Uon-1" value="&lt;font style=&quot;font-size: 15px;&quot;&gt;Plan&lt;/font&gt;" style="ellipse;whiteSpace=wrap;html=1;aspect=fixed;" vertex="1" parent="1">
          <mxGeometry x="360" y="40" width="80" height="80" as="geometry" />
        </mxCell>
        <mxCell id="NqwPaf2GfjFsyQQR7Uon-10" value="" style="edgeStyle=orthogonalEdgeStyle;rounded=0;orthogonalLoop=1;jettySize=auto;html=1;" edge="1" parent="1" source="NqwPaf2GfjFsyQQR7Uon-2" target="NqwPaf2GfjFsyQQR7Uon-4">
          <mxGeometry relative="1" as="geometry" />
        </mxCell>
        <mxCell id="NqwPaf2GfjFsyQQR7Uon-2" value="&lt;font style=&quot;font-size: 15px;&quot;&gt;Develop&lt;/font&gt;" style="ellipse;whiteSpace=wrap;html=1;aspect=fixed;strokeColor=default;align=center;verticalAlign=middle;fontFamily=Helvetica;fontSize=12;fontColor=default;fillColor=default;" vertex="1" parent="1">
          <mxGeometry x="360" y="160" width="80" height="80" as="geometry" />
        </mxCell>
        <mxCell id="NqwPaf2GfjFsyQQR7Uon-12" value="" style="edgeStyle=orthogonalEdgeStyle;rounded=0;orthogonalLoop=1;jettySize=auto;html=1;" edge="1" parent="1" source="NqwPaf2GfjFsyQQR7Uon-3" target="NqwPaf2GfjFsyQQR7Uon-6">
          <mxGeometry relative="1" as="geometry" />
        </mxCell>
        <mxCell id="NqwPaf2GfjFsyQQR7Uon-3" value="&lt;font style=&quot;font-size: 15px;&quot;&gt;Test&lt;/font&gt;" style="ellipse;whiteSpace=wrap;html=1;aspect=fixed;" vertex="1" parent="1">
          <mxGeometry x="360" y="400" width="80" height="80" as="geometry" />
        </mxCell>
        <mxCell id="NqwPaf2GfjFsyQQR7Uon-11" value="" style="edgeStyle=orthogonalEdgeStyle;rounded=0;orthogonalLoop=1;jettySize=auto;html=1;" edge="1" parent="1" source="NqwPaf2GfjFsyQQR7Uon-4" target="NqwPaf2GfjFsyQQR7Uon-3">
          <mxGeometry relative="1" as="geometry" />
        </mxCell>
        <mxCell id="NqwPaf2GfjFsyQQR7Uon-4" value="&lt;font style=&quot;font-size: 15px;&quot;&gt;Build&lt;/font&gt;" style="ellipse;whiteSpace=wrap;html=1;aspect=fixed;" vertex="1" parent="1">
          <mxGeometry x="360" y="280" width="80" height="80" as="geometry" />
        </mxCell>
        <mxCell id="NqwPaf2GfjFsyQQR7Uon-5" value="&lt;font style=&quot;font-size: 14px;&quot;&gt;Monitor&lt;/font&gt;" style="ellipse;whiteSpace=wrap;html=1;aspect=fixed;" vertex="1" parent="1">
          <mxGeometry x="360" y="880" width="80" height="80" as="geometry" />
        </mxCell>
        <mxCell id="NqwPaf2GfjFsyQQR7Uon-13" value="" style="edgeStyle=orthogonalEdgeStyle;rounded=0;orthogonalLoop=1;jettySize=auto;html=1;" edge="1" parent="1" source="NqwPaf2GfjFsyQQR7Uon-6" target="NqwPaf2GfjFsyQQR7Uon-7">
          <mxGeometry relative="1" as="geometry" />
        </mxCell>
        <mxCell id="NqwPaf2GfjFsyQQR7Uon-6" value="&lt;font style=&quot;font-size: 14px;&quot;&gt;Release&lt;/font&gt;" style="ellipse;whiteSpace=wrap;html=1;aspect=fixed;" vertex="1" parent="1">
          <mxGeometry x="360" y="520" width="80" height="80" as="geometry" />
        </mxCell>
        <mxCell id="NqwPaf2GfjFsyQQR7Uon-14" value="" style="edgeStyle=orthogonalEdgeStyle;rounded=0;orthogonalLoop=1;jettySize=auto;html=1;" edge="1" parent="1" source="NqwPaf2GfjFsyQQR7Uon-7" target="NqwPaf2GfjFsyQQR7Uon-8">
          <mxGeometry relative="1" as="geometry" />
        </mxCell>
        <mxCell id="NqwPaf2GfjFsyQQR7Uon-7" value="&lt;font style=&quot;font-size: 14px;&quot;&gt;Deploy&lt;/font&gt;" style="ellipse;whiteSpace=wrap;html=1;aspect=fixed;" vertex="1" parent="1">
          <mxGeometry x="360" y="640" width="80" height="80" as="geometry" />
        </mxCell>
        <mxCell id="NqwPaf2GfjFsyQQR7Uon-15" value="" style="edgeStyle=orthogonalEdgeStyle;rounded=0;orthogonalLoop=1;jettySize=auto;html=1;" edge="1" parent="1" source="NqwPaf2GfjFsyQQR7Uon-8" target="NqwPaf2GfjFsyQQR7Uon-5">
          <mxGeometry relative="1" as="geometry" />
        </mxCell>
        <mxCell id="NqwPaf2GfjFsyQQR7Uon-8" value="&lt;font style=&quot;font-size: 14px;&quot;&gt;Operate&lt;/font&gt;" style="ellipse;whiteSpace=wrap;html=1;aspect=fixed;" vertex="1" parent="1">
          <mxGeometry x="360" y="760" width="80" height="80" as="geometry" />
        </mxCell>
      </root>
    </mxGraphModel>
  </diagram>
</mxfile>
